<svg width="735" height="285" viewBox="0 0 735 285" fill="none" xmlns="http://www.w3.org/2000/svg">
<path d="M394.871 73.3542C437.671 154.424 382.16 271.21 292.045 222.37C255.763 226.051 232.314 210.678 221.546 190.284C200.095 149.652 220.654 81.7547 259.888 61.0413C299.122 40.3279 373.42 32.7228 394.871 73.3542Z" fill="url(#paint0_linear_302_7886)"/>
<path d="M294 124.743C293.725 125.976 292.628 126.9 291.312 126.908C289.781 126.917 288.534 125.684 288.525 124.154C288.517 122.962 289.263 121.942 290.316 121.545C290.73 122.471 291.193 123.173 291.717 123.685C292.485 124.434 293.295 124.69 294 124.743ZM294.06 124.001C294.059 123.997 294.059 123.996 294.059 123.996C294.059 123.996 294.06 123.997 294.06 124.001Z" fill="#343A40" stroke="#343A40" stroke-width="3"/>
<path d="M341.516 125.632C341.525 127.15 340.301 128.388 338.783 128.397C337.473 128.405 336.373 127.496 336.089 126.272C336.769 126.197 337.534 125.925 338.267 125.205C338.789 124.693 339.258 123.99 339.687 123.057C340.747 123.433 341.509 124.442 341.516 125.632Z" fill="#343A40" stroke="#343A40" stroke-width="3"/>
<path d="M320.375 131.809C320.375 122.323 309.312 124.872 309.312 131.809" stroke="#343A40" stroke-width="3" stroke-linecap="round" stroke-linejoin="round"/>
<path d="M299.242 222.691L298.95 222.504L298.607 222.463C259.559 217.865 236.436 204.908 223.737 187.186C211.018 169.436 208.522 146.584 211.454 121.686C217.246 72.5023 265.568 37.546 319.635 43.9135C373.702 50.2809 412.58 95.5068 406.788 144.691C403.866 169.502 392.056 198.893 373.406 217.088C364.102 226.165 353.154 232.402 340.802 233.98C328.463 235.556 314.545 232.507 299.242 222.691Z" stroke="#343A40" stroke-width="3"/>
<path d="M308.654 37.8391C302.152 30.5561 301.654 13.8391 301.654 13.8391C301.654 13.8391 317.958 12.7072 325.654 18.3391C335.281 25.3851 336.654 46.8391 336.654 46.8391C336.654 46.8391 316.303 46.4072 308.654 37.8391Z" fill="#58B793" stroke="#343A40" stroke-width="3"/>
<path d="M349.024 26.9142C355.932 23.2598 369.019 26.0826 369.019 26.0826C369.019 26.0826 366.768 38.9709 360.914 43.8696C353.59 49.9983 336.654 46.9456 336.654 46.9456C336.654 46.9456 340.897 31.2133 349.024 26.9142Z" fill="#58B793" stroke="#343A40" stroke-width="3"/>
<path d="M286.762 207.064C290.89 213.388 301.654 222.746 301.654 222.746H295.383C295.383 222.746 282.224 213.57 278.924 207.968C273.815 199.296 278.924 184.746 278.924 184.746C278.924 184.746 281.656 199.242 286.762 207.064Z" fill="#343A40"/>
<path d="M99.6 219.4C82.2 219.4 66.7 215.9 53.1 208.9C39.5 201.7 28.8 191.8 21 179.2C13.4 166.6 9.6 152.3 9.6 136.3C9.6 120.1 13.4 105.8 21 93.4C28.8 80.8 39.5 71 53.1 64C66.7 56.8 82.2 53.2 99.6 53.2C116.6 53.2 131.4 56.8 144 64C156.6 71 165.9 81.1 171.9 94.3L135.6 113.8C131.4 106.2 126.1 100.6 119.7 97C113.5 93.4 106.7 91.6 99.3 91.6C91.3 91.6 84.1 93.4 77.7 97C71.3 100.6 66.2 105.7 62.4 112.3C58.8 118.9 57 126.9 57 136.3C57 145.7 58.8 153.7 62.4 160.3C66.2 166.9 71.3 172 77.7 175.6C84.1 179.2 91.3 181 99.3 181C106.7 181 113.5 179.3 119.7 175.9C126.1 172.3 131.4 166.6 135.6 158.8L171.9 178.6C165.9 191.6 156.6 201.7 144 208.9C131.4 215.9 116.6 219.4 99.6 219.4ZM441.729 217V55.6H486.429V101.2L480.129 88C484.929 76.6 492.629 68 503.229 62.2C513.829 56.2 526.729 53.2 541.929 53.2V96.4C539.929 96.2 538.129 96.1 536.529 96.1C534.929 95.9 533.229 95.8 531.429 95.8C518.629 95.8 508.229 99.5 500.229 106.9C492.429 114.1 488.529 125.4 488.529 140.8V217H441.729ZM645.684 219.4C627.284 219.4 611.084 215.8 597.084 208.6C583.284 201.4 572.584 191.6 564.984 179.2C557.384 166.6 553.584 152.3 553.584 136.3C553.584 120.1 557.284 105.8 564.684 93.4C572.284 80.8 582.584 71 595.584 64C608.584 56.8 623.284 53.2 639.684 53.2C655.484 53.2 669.684 56.6 682.284 63.4C695.084 70 705.184 79.6 712.584 92.2C719.984 104.6 723.684 119.5 723.684 136.9C723.684 138.7 723.584 140.8 723.384 143.2C723.184 145.4 722.984 147.5 722.784 149.5H591.684V122.2H698.184L680.184 130.3C680.184 121.9 678.484 114.6 675.084 108.4C671.684 102.2 666.984 97.4 660.984 94C654.984 90.4 647.984 88.6 639.984 88.6C631.984 88.6 624.884 90.4 618.684 94C612.684 97.4 607.984 102.3 604.584 108.7C601.184 114.9 599.484 122.3 599.484 130.9V138.1C599.484 146.9 601.384 154.7 605.184 161.5C609.184 168.1 614.684 173.2 621.684 176.8C628.884 180.2 637.284 181.9 646.884 181.9C655.484 181.9 662.984 180.6 669.384 178C675.984 175.4 681.984 171.5 687.384 166.3L712.284 193.3C704.884 201.7 695.584 208.2 684.384 212.8C673.184 217.2 660.284 219.4 645.684 219.4Z" fill="#343A40"/>
<defs>
<linearGradient id="paint0_linear_302_7886" x1="317.823" y1="24.1528" x2="335.385" y2="212.398" gradientUnits="userSpaceOnUse">
<stop offset="0.127886" stop-color="#FFE1E0"/>
<stop offset="0.429975" stop-color="#EDB3B1"/>
<stop offset="0.867483" stop-color="#EB5E55"/>
</linearGradient>
</defs>
</svg>
